<?xml version="1.0" standalone="no"?>
<!DOCTYPE svg PUBLIC "-//W3C//DTD SVG 20010904//EN"
 "http://www.w3.org/TR/2001/REC-SVG-20010904/DTD/svg10.dtd">
<svg version="1.0" xmlns="http://www.w3.org/2000/svg"
 width="512.000000pt" height="512.000000pt" viewBox="0 0 512.000000 512.000000"
 preserveAspectRatio="xMidYMid meet">
<metadata>
Created by potrace 1.14, written by Peter Selinger 2001-2017
</metadata>
<g transform="translate(0.000000,512.000000) scale(0.100000,-0.100000)"
fill="#000000" stroke="none">
<path d="M349 5105 c-237 -63 -386 -302 -339 -545 22 -118 58 -169 283 -397
179 -181 207 -214 199 -230 -6 -10 -27 -43 -46 -72 -35 -51 -142 -260 -178
-346 -80 -191 -148 -452 -173 -665 -29 -235 -17 -525 30 -780 16 -88 83 -319
97 -335 4 -5 8 -15 8 -21 0 -7 5 -25 12 -41 6 -15 12 -33 13 -39 7 -32 133
-281 186 -367 l61 -99 -204 -206 c-260 -263 -288 -309 -293 -479 -4 -104 8
-153 56 -243 39 -74 105 -140 179 -179 83 -44 133 -57 226 -59 87 -1 177 24
251 69 21 13 131 115 245 227 l207 204 88 -54 c171 -105 394 -207 558 -256 74
-22 227 -62 260 -68 67 -11 87 -15 156 -24 147 -20 313 -26 494 -16 83 5 115
8 200 21 17 3 48 7 70 11 22 3 65 12 95 19 30 8 66 16 80 19 56 11 266 80 337
111 120 53 254 121 343 175 l102 62 206 -205 c252 -248 305 -282 455 -294 310
-24 554 246 498 552 -23 124 -56 171 -284 402 l-209 212 39 63 c35 55 69 115
119 208 87 162 182 444 222 660 18 96 24 135 37 270 7 62 6 301 0 380 -31 392
-159 784 -362 1113 l-55 89 198 201 c110 111 201 204 204 207 16 14 64 107 79
153 22 65 24 187 5 262 -14 53 -64 147 -102 191 -27 32 -111 93 -151 110 -137
60 -279 57 -411 -8 -54 -26 -101 -67 -276 -240 -116 -114 -213 -208 -216 -208
-3 0 -32 18 -64 39 -129 86 -345 189 -519 248 -127 44 -183 58 -325 87 -186
37 -283 46 -484 46 -164 0 -231 -5 -391 -30 -307 -48 -621 -164 -893 -329 -57
-34 -105 -61 -107 -59 -2 2 -93 91 -202 199 -201 200 -259 245 -354 278 -64
21 -192 24 -260 6z"/>
</g>
</svg>
